<?xml version="1.0" encoding="UTF-8" standalone="no"?>
<!DOCTYPE svg PUBLIC "-//W3C//DTD SVG 1.1//EN"
 "http://www.w3.org/Graphics/SVG/1.1/DTD/svg11.dtd">
<!-- Generated by graphviz version 10.0.1 (20240210.2158)
 -->
<!-- Pages: 1 -->
<svg width="934pt" height="1023pt"
 viewBox="0.00 0.00 934.00 1022.80" xmlns="http://www.w3.org/2000/svg" xmlns:xlink="http://www.w3.org/1999/xlink">
<g id="graph0" class="graph" transform="scale(1 1) rotate(0) translate(4 1018.8)">
<polygon fill="white" stroke="none" points="-4,4 -4,-1018.8 930,-1018.8 930,4 -4,4"/>
<g id="clust1" class="cluster">
<title>cluster_group_Intelligent Visual Collaboration Analytics Platform &#45; IVCAP</title>
<polygon fill="none" stroke="#cccccc" stroke-dasharray="5,2" points="8,-8 8,-1006.8 918,-1006.8 918,-8 8,-8"/>
<text text-anchor="start" x="155.12" y="10.8" font-family="Arial" font-size="24.00" fill="#cccccc">Intelligent Visual Collaboration Analytics Platform &#45; IVCAP</text>
</g>
<!-- 13 -->
<g id="13" class="node">
<title>13</title>
<polygon fill="#1168bd" stroke="#0b4884" points="380.55,-164.2 33.45,-164.2 33.45,-68 380.55,-68 380.55,-164.2"/>
<text text-anchor="start" x="62.25" y="-111.3" font-family="Arial" font-size="34.00" fill="#ffffff">DataFabric Service</text>
<text text-anchor="start" x="130.12" y="-91.55" font-family="Arial" font-size="19.00" fill="#ffffff">[Software System]</text>
</g>
<!-- 14 -->
<g id="14" class="node">
<title>14</title>
<polygon fill="#99b2c9" stroke="#6b7c8c" points="892.55,-448.4 515.45,-448.4 515.45,-290.2 892.55,-290.2 892.55,-448.4"/>
<text text-anchor="start" x="668.38" y="-395.5" font-family="Arial" font-size="34.00" fill="#ffffff">Argo</text>
<text text-anchor="start" x="627.12" y="-375.75" font-family="Arial" font-size="19.00" fill="#ffffff">[Software System]</text>
<text text-anchor="start" x="544.25" y="-338" font-family="Arial" font-size="24.00" fill="#ffffff">Workflow engine executing all</text>
<text text-anchor="start" x="669.5" y="-314" font-family="Arial" font-size="24.00" fill="#ffffff">orders</text>
</g>
<!-- 14&#45;&gt;13 -->
<g id="47" class="edge">
<title>14&#45;&gt;13</title>
<path fill="none" stroke="#707070" stroke-dasharray="5,2" d="M548.79,-289.85C471.42,-250.75 379.94,-204.51 311.1,-169.72"/>
<polygon fill="#707070" stroke="#707070" points="312.97,-166.74 302.46,-165.35 309.81,-172.99 312.97,-166.74"/>
<text text-anchor="start" x="521" y="-231.4" font-family="Arial" font-size="24.00" fill="#707070">stores metadata for</text>
<text text-anchor="start" x="470" y="-204.4" font-family="Arial" font-size="24.00" fill="#707070">accessed and produced data</text>
</g>
<!-- 3 -->
<g id="3" class="node">
<title>3</title>
<polygon fill="#1168bd" stroke="#0b4884" points="353.18,-981.8 96.82,-981.8 96.82,-885.6 353.18,-885.6 353.18,-981.8"/>
<text text-anchor="start" x="125.62" y="-928.9" font-family="Arial" font-size="34.00" fill="#ffffff">API Gateway</text>
<text text-anchor="start" x="148.12" y="-909.15" font-family="Arial" font-size="19.00" fill="#ffffff">[Software System]</text>
</g>
<!-- 3&#45;&gt;13 -->
<g id="34" class="edge">
<title>3&#45;&gt;13</title>
<path fill="none" stroke="#707070" stroke-dasharray="5,2" d="M201,-885.25C167.83,-816.73 109.6,-685.12 88,-565.4 58.7,-403 91.45,-352.49 155,-200.2 158.63,-191.51 163.12,-182.69 167.93,-174.21"/>
<polygon fill="#707070" stroke="#707070" points="170.86,-176.13 172.92,-165.73 164.83,-172.57 170.86,-176.13"/>
<text text-anchor="start" x="126.25" y="-542.6" font-family="Arial" font-size="24.00" fill="#707070">reads and writes all</text>
<text text-anchor="start" x="88" y="-515.6" font-family="Arial" font-size="24.00" fill="#707070">relevant metadata (orders,</text>
<text text-anchor="start" x="101.5" y="-488.6" font-family="Arial" font-size="24.00" fill="#707070">workflows, accounts, ...)</text>
</g>
<!-- 9 -->
<g id="9" class="node">
<title>9</title>
<polygon fill="#1168bd" stroke="#0b4884" points="586.05,-759.6 205.95,-759.6 205.95,-601.4 586.05,-601.4 586.05,-759.6"/>
<text text-anchor="start" x="266.62" y="-706.7" font-family="Arial" font-size="34.00" fill="#ffffff">Order Dispatcher</text>
<text text-anchor="start" x="319.12" y="-686.95" font-family="Arial" font-size="19.00" fill="#ffffff">[Software System]</text>
<text text-anchor="start" x="238.5" y="-649.2" font-family="Arial" font-size="24.00" fill="#ffffff">Creates appropriate workflow</text>
<text text-anchor="start" x="234.75" y="-625.2" font-family="Arial" font-size="24.00" fill="#ffffff">and schedules them with Argo</text>
</g>
<!-- 3&#45;&gt;9 -->
<g id="31" class="edge">
<title>3&#45;&gt;9</title>
<path fill="none" stroke="#707070" stroke-dasharray="5,2" d="M257.36,-885.16C279.6,-852.5 309.77,-808.18 336.29,-769.22"/>
<polygon fill="#707070" stroke="#707070" points="339,-771.45 341.74,-761.22 333.21,-767.51 339,-771.45"/>
<text text-anchor="start" x="315" y="-826.8" font-family="Arial" font-size="24.00" fill="#707070">forward incoming orders</text>
<text text-anchor="start" x="369" y="-799.8" font-family="Arial" font-size="24.00" fill="#707070">for processing</text>
</g>
<!-- 9&#45;&gt;13 -->
<g id="37" class="edge">
<title>9&#45;&gt;13</title>
<path fill="none" stroke="#707070" stroke-dasharray="5,2" d="M415.15,-601.13C419.94,-561.87 417.56,-516.08 391,-484.4 339.49,-422.97 265.64,-509.93 214.25,-448.4 150.58,-372.17 169.49,-248.09 188.55,-175.36"/>
<polygon fill="#707070" stroke="#707070" points="191.84,-176.61 191.08,-166.04 185.08,-174.78 191.84,-176.61"/>
<text text-anchor="start" x="214" y="-373.5" font-family="Arial" font-size="24.00" fill="#707070">stores metadata of order</text>
<text text-anchor="start" x="253" y="-346.5" font-family="Arial" font-size="24.00" fill="#707070">related workflows</text>
</g>
<!-- 9&#45;&gt;14 -->
<g id="36" class="edge">
<title>9&#45;&gt;14</title>
<path fill="none" stroke="#707070" stroke-dasharray="5,2" d="M474.12,-601.08C518,-557.02 572.84,-501.97 617.95,-456.69"/>
<polygon fill="#707070" stroke="#707070" points="620.32,-459.27 624.9,-449.71 615.36,-454.33 620.32,-459.27"/>
<text text-anchor="start" x="586" y="-529.1" font-family="Arial" font-size="24.00" fill="#707070">dispatch order specific</text>
<text text-anchor="start" x="653.5" y="-502.1" font-family="Arial" font-size="24.00" fill="#707070">workflows</text>
</g>
</g>
</svg>
