<?xml version="1.0" encoding="UTF-8" standalone="no"?>
<!DOCTYPE svg PUBLIC "-//W3C//DTD SVG 1.1//EN"
 "http://www.w3.org/Graphics/SVG/1.1/DTD/svg11.dtd">
<!-- Generated by graphviz version 10.0.1 (20240210.2158)
 -->
<!-- Pages: 1 -->
<svg width="2157pt" height="1185pt"
 viewBox="0.00 0.00 2157.18 1185.00" xmlns="http://www.w3.org/2000/svg" xmlns:xlink="http://www.w3.org/1999/xlink">
<g id="graph0" class="graph" transform="scale(1 1) rotate(0) translate(4 1181)">
<polygon fill="white" stroke="none" points="-4,4 -4,-1181 2153.18,-1181 2153.18,4 -4,4"/>
<g id="clust1" class="cluster">
<title>cluster_group_Intelligent Visual Collaboration Analytics Platform &#45; IVCAP</title>
<polygon fill="none" stroke="#cccccc" stroke-dasharray="5,2" points="516.92,-8 516.92,-1169 1845.92,-1169 1845.92,-8 516.92,-8"/>
<text text-anchor="start" x="873.55" y="10.8" font-family="Arial" font-size="24.00" fill="#cccccc">Intelligent Visual Collaboration Analytics Platform &#45; IVCAP</text>
</g>
<!-- 11 -->
<g id="11" class="node">
<title>11</title>
<polygon fill="#1168bd" stroke="#0b4884" points="1699.97,-727.6 1283.88,-727.6 1283.88,-569.4 1699.97,-569.4 1699.97,-727.6"/>
<text text-anchor="start" x="1379.8" y="-674.7" font-family="Arial" font-size="34.00" fill="#ffffff">Queue Service</text>
<text text-anchor="start" x="1415.05" y="-654.95" font-family="Arial" font-size="19.00" fill="#ffffff">[Software System]</text>
<text text-anchor="start" x="1312.67" y="-617.2" font-family="Arial" font-size="24.00" fill="#ffffff">Handles queue management and</text>
<text text-anchor="start" x="1393.67" y="-593.2" font-family="Arial" font-size="24.00" fill="#ffffff">message handling</text>
</g>
<!-- 13 -->
<g id="13" class="node">
<title>13</title>
<polygon fill="#1168bd" stroke="#0b4884" points="1137.47,-164.2 790.38,-164.2 790.38,-68 1137.47,-68 1137.47,-164.2"/>
<text text-anchor="start" x="819.17" y="-111.3" font-family="Arial" font-size="34.00" fill="#ffffff">DataFabric Service</text>
<text text-anchor="start" x="887.05" y="-91.55" font-family="Arial" font-size="19.00" fill="#ffffff">[Software System]</text>
</g>
<!-- 11&#45;&gt;13 -->
<g id="38" class="edge">
<title>11&#45;&gt;13</title>
<path fill="none" stroke="#707070" stroke-dasharray="5,2" d="M1509.44,-569.21C1525.15,-476.84 1534.84,-324.1 1453.92,-231.2 1413.7,-185.01 1270.48,-155.19 1149.2,-137.66"/>
<polygon fill="#707070" stroke="#707070" points="1149.8,-134.21 1139.41,-136.27 1148.81,-141.14 1149.8,-134.21"/>
<text text-anchor="start" x="1519.92" y="-458.5" font-family="Arial" font-size="24.00" fill="#707070">stores metadata of queue</text>
<text text-anchor="start" x="1608.8" y="-431.5" font-family="Arial" font-size="24.00" fill="#707070">lifecycles</text>
</g>
<!-- 14 -->
<g id="14" class="node">
<title>14</title>
<polygon fill="#99b2c9" stroke="#6b7c8c" points="1401.47,-533.4 1024.38,-533.4 1024.38,-375.2 1401.47,-375.2 1401.47,-533.4"/>
<text text-anchor="start" x="1177.3" y="-480.5" font-family="Arial" font-size="34.00" fill="#ffffff">Argo</text>
<text text-anchor="start" x="1136.05" y="-460.75" font-family="Arial" font-size="19.00" fill="#ffffff">[Software System]</text>
<text text-anchor="start" x="1053.17" y="-423" font-family="Arial" font-size="24.00" fill="#ffffff">Workflow engine executing all</text>
<text text-anchor="start" x="1178.42" y="-399" font-family="Arial" font-size="24.00" fill="#ffffff">orders</text>
</g>
<!-- 14&#45;&gt;13 -->
<g id="47" class="edge">
<title>14&#45;&gt;13</title>
<path fill="none" stroke="#707070" stroke-dasharray="5,2" d="M1154.86,-374.9C1109.12,-313.14 1046.46,-228.54 1005.6,-173.37"/>
<polygon fill="#707070" stroke="#707070" points="1008.65,-171.6 999.88,-165.65 1003.02,-175.77 1008.65,-171.6"/>
<text text-anchor="start" x="1175.92" y="-289.4" font-family="Arial" font-size="24.00" fill="#707070">stores metadata for</text>
<text text-anchor="start" x="1124.92" y="-262.4" font-family="Arial" font-size="24.00" fill="#707070">accessed and produced data</text>
</g>
<!-- 21 -->
<g id="21" class="node">
<title>21</title>
<polygon fill="#999999" stroke="#6b6b6b" points="2086.85,-164.2 1871,-164.2 1871,-68 2086.85,-68 2086.85,-164.2"/>
<text text-anchor="start" x="1899.8" y="-111.3" font-family="Arial" font-size="34.00" fill="#ffffff">Blob Store</text>
<text text-anchor="start" x="1902.05" y="-91.55" font-family="Arial" font-size="19.00" fill="#ffffff">[Software System]</text>
</g>
<!-- 14&#45;&gt;21 -->
<g id="45" class="edge">
<title>14&#45;&gt;21</title>
<path fill="none" stroke="#707070" stroke-dasharray="5,2" d="M1379.72,-374.85C1404.63,-362.99 1429.98,-350.83 1453.92,-339.2 1550.84,-292.15 1568.77,-265.41 1670.92,-231.2 1753.67,-203.49 1783.24,-228.41 1863.92,-195.2 1879.49,-188.79 1895.1,-180.08 1909.59,-170.8"/>
<polygon fill="#707070" stroke="#707070" points="1911.25,-173.9 1917.67,-165.47 1907.39,-168.05 1911.25,-173.9"/>
<text text-anchor="start" x="1670.92" y="-289.4" font-family="Arial" font-size="24.00" fill="#707070">stores produced data</text>
<text text-anchor="start" x="1738.42" y="-262.4" font-family="Arial" font-size="24.00" fill="#707070">products</text>
</g>
<!-- 23 -->
<g id="23" class="node">
<title>23</title>
<polygon fill="#999999" stroke="#6b6b6b" points="389.85,-195.2 0,-195.2 0,-37 389.85,-37 389.85,-195.2"/>
<text text-anchor="start" x="53.93" y="-142.3" font-family="Arial" font-size="34.00" fill="#ffffff">Container Registry</text>
<text text-anchor="start" x="118.05" y="-122.55" font-family="Arial" font-size="19.00" fill="#ffffff">[Software System]</text>
<text text-anchor="start" x="46.05" y="-84.8" font-family="Arial" font-size="24.00" fill="#ffffff">Holds all the analytics steps</text>
<text text-anchor="start" x="28.8" y="-60.8" font-family="Arial" font-size="24.00" fill="#ffffff">provided by workflow providers</text>
</g>
<!-- 14&#45;&gt;23 -->
<g id="41" class="edge">
<title>14&#45;&gt;23</title>
<path fill="none" stroke="#707070" stroke-dasharray="5,2" d="M1024.13,-389.34C1006.25,-384.2 988.31,-379.38 970.92,-375.2 873.32,-351.72 844.66,-366.07 747.92,-339.2 619,-303.38 479.21,-247.07 372.43,-200.11"/>
<polygon fill="#707070" stroke="#707070" points="374.14,-197.05 363.58,-196.21 371.32,-203.45 374.14,-197.05"/>
<text text-anchor="start" x="792.17" y="-316.4" font-family="Arial" font-size="24.00" fill="#707070">fetches containers</text>
<text text-anchor="start" x="747.92" y="-289.4" font-family="Arial" font-size="24.00" fill="#707070">implementing the analytics</text>
<text text-anchor="start" x="801.17" y="-262.4" font-family="Arial" font-size="24.00" fill="#707070">steps involved in</text>
<text text-anchor="start" x="806.8" y="-235.4" font-family="Arial" font-size="24.00" fill="#707070">executing order</text>
</g>
<!-- 3 -->
<g id="3" class="node">
<title>3</title>
<polygon fill="#1168bd" stroke="#0b4884" points="1086.1,-1144 829.75,-1144 829.75,-1047.8 1086.1,-1047.8 1086.1,-1144"/>
<text text-anchor="start" x="858.55" y="-1091.1" font-family="Arial" font-size="34.00" fill="#ffffff">API Gateway</text>
<text text-anchor="start" x="881.05" y="-1071.35" font-family="Arial" font-size="19.00" fill="#ffffff">[Software System]</text>
</g>
<!-- 3&#45;&gt;11 -->
<g id="32" class="edge">
<title>3&#45;&gt;11</title>
<path fill="none" stroke="#707070" stroke-dasharray="5,2" d="M1086.34,-1075.18C1136.41,-1062.93 1192.15,-1043.25 1235.92,-1011.8 1334.24,-941.16 1408.34,-820.67 1450.89,-738.18"/>
<polygon fill="#707070" stroke="#707070" points="1453.94,-739.91 1455.37,-729.41 1447.7,-736.73 1453.94,-739.91"/>
<text text-anchor="start" x="1296.55" y="-989" font-family="Arial" font-size="24.00" fill="#707070">forward incoming queue</text>
<text text-anchor="start" x="1293.92" y="-962" font-family="Arial" font-size="24.00" fill="#707070">resquests for processing</text>
</g>
<!-- 3&#45;&gt;13 -->
<g id="34" class="edge">
<title>3&#45;&gt;13</title>
<path fill="none" stroke="#707070" stroke-dasharray="5,2" d="M884.55,-1047.42C837.88,-1015.22 777.83,-969.88 731.92,-921.8 659.33,-845.78 628.36,-827.91 596.92,-727.6 575.9,-660.51 584.45,-638.6 596.92,-569.4 625.38,-411.54 614.46,-349.37 722.92,-231.2 746.16,-205.89 776.18,-185.66 807.09,-169.7"/>
<polygon fill="#707070" stroke="#707070" points="808.42,-172.95 815.8,-165.35 805.29,-166.69 808.42,-172.95"/>
<text text-anchor="start" x="635.17" y="-666.2" font-family="Arial" font-size="24.00" fill="#707070">reads and writes all</text>
<text text-anchor="start" x="596.92" y="-639.2" font-family="Arial" font-size="24.00" fill="#707070">relevant metadata (orders,</text>
<text text-anchor="start" x="610.42" y="-612.2" font-family="Arial" font-size="24.00" fill="#707070">workflows, accounts, ...)</text>
</g>
<!-- 9 -->
<g id="9" class="node">
<title>9</title>
<polygon fill="#1168bd" stroke="#0b4884" points="1147.97,-921.8 767.88,-921.8 767.88,-763.6 1147.97,-763.6 1147.97,-921.8"/>
<text text-anchor="start" x="828.55" y="-868.9" font-family="Arial" font-size="34.00" fill="#ffffff">Order Dispatcher</text>
<text text-anchor="start" x="881.05" y="-849.15" font-family="Arial" font-size="19.00" fill="#ffffff">[Software System]</text>
<text text-anchor="start" x="800.42" y="-811.4" font-family="Arial" font-size="24.00" fill="#ffffff">Creates appropriate workflow</text>
<text text-anchor="start" x="796.67" y="-787.4" font-family="Arial" font-size="24.00" fill="#ffffff">and schedules them with Argo</text>
</g>
<!-- 3&#45;&gt;9 -->
<g id="31" class="edge">
<title>3&#45;&gt;9</title>
<path fill="none" stroke="#707070" stroke-dasharray="5,2" d="M957.92,-1047.36C957.92,-1015.25 957.92,-971.87 957.92,-933.4"/>
<polygon fill="#707070" stroke="#707070" points="961.43,-933.68 957.93,-923.68 954.43,-933.68 961.43,-933.68"/>
<text text-anchor="start" x="957.92" y="-989" font-family="Arial" font-size="24.00" fill="#707070">forward incoming orders</text>
<text text-anchor="start" x="1011.92" y="-962" font-family="Arial" font-size="24.00" fill="#707070">for processing</text>
</g>
<!-- 3&#45;&gt;21 -->
<g id="35" class="edge">
<title>3&#45;&gt;21</title>
<path fill="none" stroke="#707070" stroke-dasharray="5,2" d="M1086.59,-1090.92C1243.81,-1083.8 1498.48,-1064.32 1575.92,-1011.8 1870.77,-811.88 1952.82,-341.61 1972.99,-176.04"/>
<polygon fill="#707070" stroke="#707070" points="1976.46,-176.5 1974.16,-166.16 1969.51,-175.68 1976.46,-176.5"/>
<text text-anchor="start" x="1879.92" y="-639.2" font-family="Arial" font-size="24.00" fill="#707070">reads and writes artifacts</text>
</g>
<!-- 3&#45;&gt;23 -->
<g id="33" class="edge">
<title>3&#45;&gt;23</title>
<path fill="none" stroke="#707070" stroke-dasharray="5,2" d="M829.58,-1064.67C671.69,-1020.09 409.23,-920.32 283.93,-727.6 179.64,-567.21 177.55,-333.45 185.82,-206.77"/>
<polygon fill="#707070" stroke="#707070" points="189.29,-207.33 186.49,-197.11 182.3,-206.84 189.29,-207.33"/>
<text text-anchor="start" x="296.3" y="-652.7" font-family="Arial" font-size="24.00" fill="#707070">stores provider supplied</text>
<text text-anchor="start" x="283.93" y="-625.7" font-family="Arial" font-size="24.00" fill="#707070">dockerised analytics steps</text>
</g>
<!-- 9&#45;&gt;13 -->
<g id="37" class="edge">
<title>9&#45;&gt;13</title>
<path fill="none" stroke="#707070" stroke-dasharray="5,2" d="M943.36,-763.1C928.59,-685.16 906.93,-576.34 899.92,-569.4 842.98,-512.97 773.89,-595.49 723.17,-533.4 678.69,-478.95 697.4,-440.62 723.17,-375.2 756.29,-291.15 831.11,-218.3 888.62,-171.64"/>
<polygon fill="#707070" stroke="#707070" points="890.53,-174.59 896.15,-165.61 886.16,-169.13 890.53,-174.59"/>
<text text-anchor="start" x="722.92" y="-458.5" font-family="Arial" font-size="24.00" fill="#707070">stores metadata of order</text>
<text text-anchor="start" x="761.92" y="-431.5" font-family="Arial" font-size="24.00" fill="#707070">related workflows</text>
</g>
<!-- 9&#45;&gt;14 -->
<g id="36" class="edge">
<title>9&#45;&gt;14</title>
<path fill="none" stroke="#707070" stroke-dasharray="5,2" d="M954.82,-763.24C956.34,-704.76 966.88,-625.64 1007.17,-569.4 1014.53,-559.13 1023.12,-549.67 1032.53,-540.99"/>
<polygon fill="#707070" stroke="#707070" points="1034.66,-543.78 1039.86,-534.55 1030.04,-538.52 1034.66,-543.78"/>
<text text-anchor="start" x="1006.92" y="-652.7" font-family="Arial" font-size="24.00" fill="#707070">dispatch order specific</text>
<text text-anchor="start" x="1074.42" y="-625.7" font-family="Arial" font-size="24.00" fill="#707070">workflows</text>
</g>
</g>
</svg>
