<?xml version="1.0" encoding="UTF-8" standalone="no"?>
<!DOCTYPE svg PUBLIC "-//W3C//DTD SVG 1.1//EN"
 "http://www.w3.org/Graphics/SVG/1.1/DTD/svg11.dtd">
<!-- Generated by graphviz version 10.0.1 (20240210.2158)
 -->
<!-- Pages: 1 -->
<svg width="872pt" height="689pt"
 viewBox="0.00 0.00 871.80 688.79" xmlns="http://www.w3.org/2000/svg" xmlns:xlink="http://www.w3.org/1999/xlink">
<g id="graph0" class="graph" transform="scale(1 1) rotate(0) translate(4 684.79)">
<polygon fill="white" stroke="none" points="-4,4 -4,-684.79 867.8,-684.79 867.8,4 -4,4"/>
<g id="clust1" class="cluster">
<title>cluster_group_Intelligent Visual Collaboration Analytics Platform &#45; IVCAP</title>
<polygon fill="none" stroke="#cccccc" stroke-dasharray="5,2" points="8,-8 8,-189.2 639,-189.2 639,-8 8,-8"/>
<text text-anchor="start" x="15.62" y="10.8" font-family="Arial" font-size="24.00" fill="#cccccc">Intelligent Visual Collaboration Analytics Platform &#45; IVCAP</text>
</g>
<!-- 3 -->
<g id="3" class="node">
<title>3</title>
<polygon fill="#1168bd" stroke="#0b4884" points="451.18,-164.2 194.82,-164.2 194.82,-68 451.18,-68 451.18,-164.2"/>
<text text-anchor="start" x="223.62" y="-111.3" font-family="Arial" font-size="34.00" fill="#ffffff">API Gateway</text>
<text text-anchor="start" x="246.12" y="-91.55" font-family="Arial" font-size="19.00" fill="#ffffff">[Software System]</text>
</g>
<!-- 1 -->
<g id="1" class="node">
<title>1</title>
<ellipse fill="#e5770d" stroke="#a05309" cx="223" cy="-615.6" rx="88.46" ry="65.2"/>
<text text-anchor="start" x="189.25" y="-610.7" font-family="Arial" font-size="32.00" fill="#ffffff">User</text>
<text text-anchor="start" x="191.12" y="-592.95" font-family="Arial" font-size="17.00" fill="#ffffff">[Person]</text>
</g>
<!-- 1&#45;&gt;3 -->
<g id="24" class="edge">
<title>1&#45;&gt;3</title>
<path fill="none" stroke="#707070" stroke-dasharray="5,2" d="M205.71,-551.4C190.52,-484.81 174.75,-377.68 202.25,-290.2 215.86,-246.91 244.56,-204.99 270.57,-173.24"/>
<polygon fill="#707070" stroke="#707070" points="273.12,-175.65 276.85,-165.73 267.75,-171.16 273.12,-175.65"/>
<text text-anchor="start" x="220.38" y="-361.5" font-family="Arial" font-size="24.00" fill="#707070">discovers and orders</text>
<text text-anchor="start" x="202" y="-334.5" font-family="Arial" font-size="24.00" fill="#707070">analytics workflows from</text>
</g>
<!-- 19 -->
<g id="19" class="node">
<title>19</title>
<polygon fill="#1168bd" stroke="#0b4884" points="863.8,-424.4 500.2,-424.4 500.2,-290.2 863.8,-290.2 863.8,-424.4"/>
<text text-anchor="start" x="598.75" y="-371.5" font-family="Arial" font-size="34.00" fill="#ffffff">Client SDK</text>
<text text-anchor="start" x="605.12" y="-351.75" font-family="Arial" font-size="19.00" fill="#ffffff">[Software System]</text>
<text text-anchor="start" x="529" y="-314" font-family="Arial" font-size="24.00" fill="#ffffff">SDK for embedded analytics</text>
</g>
<!-- 1&#45;&gt;19 -->
<g id="25" class="edge">
<title>1&#45;&gt;19</title>
<path fill="none" stroke="#707070" stroke-dasharray="5,2" d="M293.21,-575.39C362.18,-536.88 469.02,-477.22 553.26,-430.19"/>
<polygon fill="#707070" stroke="#707070" points="554.81,-433.33 561.83,-425.4 551.39,-427.22 554.81,-433.33"/>
<text text-anchor="start" x="493" y="-491.6" font-family="Arial" font-size="24.00" fill="#707070">embeded into customer&#39;s</text>
<text text-anchor="start" x="558.25" y="-464.6" font-family="Arial" font-size="24.00" fill="#707070">analytics tool</text>
</g>
<!-- 19&#45;&gt;3 -->
<g id="26" class="edge">
<title>19&#45;&gt;3</title>
<path fill="none" stroke="#707070" stroke-dasharray="5,2" d="M582.48,-289.99C526.1,-252.42 456.49,-206.04 403.57,-170.78"/>
<polygon fill="#707070" stroke="#707070" points="405.74,-168.03 395.48,-165.39 401.86,-173.85 405.74,-168.03"/>
<text text-anchor="start" x="541.38" y="-231.4" font-family="Arial" font-size="24.00" fill="#707070">discovers and orders</text>
<text text-anchor="start" x="523" y="-204.4" font-family="Arial" font-size="24.00" fill="#707070">analytics workflows from</text>
</g>
</g>
</svg>
