<?xml version="1.0" encoding="UTF-8" standalone="no"?>
<!DOCTYPE svg PUBLIC "-//W3C//DTD SVG 1.1//EN"
 "http://www.w3.org/Graphics/SVG/1.1/DTD/svg11.dtd">
<!-- Generated by graphviz version 10.0.1 (20240210.2158)
 -->
<!-- Pages: 1 -->
<svg width="558pt" height="750pt"
 viewBox="0.00 0.00 558.00 749.60" xmlns="http://www.w3.org/2000/svg" xmlns:xlink="http://www.w3.org/1999/xlink">
<g id="graph0" class="graph" transform="scale(1 1) rotate(0) translate(4 745.6)">
<polygon fill="white" stroke="none" points="-4,4 -4,-745.6 554,-745.6 554,4 -4,4"/>
<g id="clust1" class="cluster">
<title>cluster_4</title>
<polygon fill="none" stroke="#444444" points="8,-8 8,-733.6 542,-733.6 542,-8 8,-8"/>
<text text-anchor="start" x="208.25" y="-33.2" font-family="Arial" font-size="24.00" fill="#444444">Provider API</text>
<text text-anchor="start" x="210.88" y="-13.95" font-family="Arial" font-size="19.00" fill="#444444">[Container: Go]</text>
</g>
<!-- 5 -->
<g id="5" class="node">
<title>5</title>
<polygon fill="#999999" stroke="#6b6b6b" points="355.55,-708.6 152.45,-708.6 152.45,-574.4 355.55,-574.4 355.55,-708.6"/>
<text text-anchor="start" x="204.88" y="-655.7" font-family="Arial" font-size="34.00" fill="#ffffff">Caddy</text>
<text text-anchor="start" x="182" y="-635.95" font-family="Arial" font-size="19.00" fill="#ffffff">[Component: Go]</text>
<text text-anchor="start" x="181.25" y="-598.2" font-family="Arial" font-size="24.00" fill="#ffffff">Http and grpc</text>
</g>
<!-- 6 -->
<g id="6" class="node">
<title>6</title>
<polygon fill="#c0a2f2" stroke="#8671a9" points="234.8,-475.4 33.2,-475.4 33.2,-341.2 234.8,-341.2 234.8,-475.4"/>
<text text-anchor="start" x="99.5" y="-422.5" font-family="Arial" font-size="34.00" fill="#ffffff">OPA</text>
<text text-anchor="start" x="62" y="-402.75" font-family="Arial" font-size="19.00" fill="#ffffff">[Component: Go]</text>
<text text-anchor="start" x="78.88" y="-365" font-family="Arial" font-size="24.00" fill="#ffffff">Authorizer</text>
</g>
<!-- 5&#45;&gt;6 -->
<g id="50" class="edge">
<title>5&#45;&gt;6</title>
<path fill="none" stroke="#707070" stroke-dasharray="5,2" d="M152.31,-595.65C130,-580.79 109.26,-561.88 96.5,-538.4 87.82,-522.44 87.89,-504.24 92.19,-486.66"/>
<polygon fill="#707070" stroke="#707070" points="95.49,-487.84 94.94,-477.26 88.77,-485.87 95.49,-487.84"/>
<text text-anchor="start" x="97" y="-515.6" font-family="Arial" font-size="24.00" fill="#707070">authorize request</text>
</g>
<!-- 7 -->
<g id="7" class="node">
<title>7</title>
<polygon fill="#c0a2f2" stroke="#8671a9" points="517.3,-475.4 306.7,-475.4 306.7,-341.2 517.3,-341.2 517.3,-475.4"/>
<text text-anchor="start" x="335.5" y="-422.5" font-family="Arial" font-size="34.00" fill="#ffffff">API router</text>
<text text-anchor="start" x="340" y="-402.75" font-family="Arial" font-size="19.00" fill="#ffffff">[Component: Go]</text>
<text text-anchor="start" x="356.88" y="-365" font-family="Arial" font-size="24.00" fill="#ffffff">Authorizer</text>
</g>
<!-- 5&#45;&gt;7 -->
<g id="51" class="edge">
<title>5&#45;&gt;7</title>
<path fill="none" stroke="#707070" stroke-dasharray="5,2" d="M299.49,-573.94C318.49,-546.13 340.67,-513.68 360.29,-484.97"/>
<polygon fill="#707070" stroke="#707070" points="362.95,-487.27 365.71,-477.04 357.17,-483.32 362.95,-487.27"/>
<text text-anchor="start" x="337" y="-515.6" font-family="Arial" font-size="24.00" fill="#707070">route request</text>
</g>
<!-- 8 -->
<g id="8" class="node">
<title>8</title>
<polygon fill="#85bbf0" stroke="#5d82a8" points="510.43,-242.2 201.57,-242.2 201.57,-108 510.43,-108 510.43,-242.2"/>
<text text-anchor="start" x="290.75" y="-189.3" font-family="Arial" font-size="34.00" fill="#000000">Services</text>
<text text-anchor="start" x="284" y="-169.55" font-family="Arial" font-size="19.00" fill="#000000">[Component: Go]</text>
<text text-anchor="start" x="230.38" y="-131.8" font-family="Arial" font-size="24.00" fill="#000000">Service implementation</text>
</g>
<!-- 7&#45;&gt;8 -->
<g id="52" class="edge">
<title>7&#45;&gt;8</title>
<path fill="none" stroke="#707070" stroke-dasharray="5,2" d="M395.88,-340.74C389.29,-313.53 381.62,-281.88 374.78,-253.64"/>
<polygon fill="#707070" stroke="#707070" points="378.22,-252.96 372.46,-244.06 371.41,-254.61 378.22,-252.96"/>
<text text-anchor="start" x="385" y="-282.4" font-family="Arial" font-size="24.00" fill="#707070">handle request</text>
</g>
</g>
</svg>
