<?xml version="1.0" encoding="UTF-8" standalone="no"?>
<!DOCTYPE svg PUBLIC "-//W3C//DTD SVG 1.1//EN"
 "http://www.w3.org/Graphics/SVG/1.1/DTD/svg11.dtd">
<!-- Generated by graphviz version 10.0.1 (20240210.2158)
 -->
<!-- Pages: 1 -->
<svg width="1426pt" height="1027pt"
 viewBox="0.00 0.00 1425.85 1026.80" xmlns="http://www.w3.org/2000/svg" xmlns:xlink="http://www.w3.org/1999/xlink">
<g id="graph0" class="graph" transform="scale(1 1) rotate(0) translate(4 1022.8)">
<polygon fill="white" stroke="none" points="-4,4 -4,-1022.8 1421.85,-1022.8 1421.85,4 -4,4"/>
<g id="clust1" class="cluster">
<title>cluster_14</title>
<polygon fill="none" stroke="#444444" points="127.93,-194.2 127.93,-1010.8 980.92,-1010.8 980.92,-194.2 127.93,-194.2"/>
<text text-anchor="start" x="528.92" y="-219.4" font-family="Arial" font-size="24.00" fill="#444444">Argo</text>
<text text-anchor="start" x="477.55" y="-200.15" font-family="Arial" font-size="19.00" fill="#444444">[Software System]</text>
</g>
<!-- 23 -->
<g id="23" class="node">
<title>23</title>
<polygon fill="#999999" stroke="#6b6b6b" points="1417.85,-709.6 1028,-709.6 1028,-551.4 1417.85,-551.4 1417.85,-709.6"/>
<text text-anchor="start" x="1081.92" y="-656.7" font-family="Arial" font-size="34.00" fill="#ffffff">Container Registry</text>
<text text-anchor="start" x="1146.05" y="-636.95" font-family="Arial" font-size="19.00" fill="#ffffff">[Software System]</text>
<text text-anchor="start" x="1074.05" y="-599.2" font-family="Arial" font-size="24.00" fill="#ffffff">Holds all the analytics steps</text>
<text text-anchor="start" x="1056.8" y="-575.2" font-family="Arial" font-size="24.00" fill="#ffffff">provided by workflow providers</text>
</g>
<!-- 13 -->
<g id="13" class="node">
<title>13</title>
<polygon fill="#1168bd" stroke="#0b4884" points="786.47,-96.2 439.37,-96.2 439.37,0 786.47,0 786.47,-96.2"/>
<text text-anchor="start" x="468.17" y="-43.3" font-family="Arial" font-size="34.00" fill="#ffffff">DataFabric Service</text>
<text text-anchor="start" x="536.05" y="-23.55" font-family="Arial" font-size="19.00" fill="#ffffff">[Software System]</text>
</g>
<!-- 21 -->
<g id="21" class="node">
<title>21</title>
<polygon fill="#999999" stroke="#6b6b6b" points="215.85,-96.2 0,-96.2 0,0 215.85,0 215.85,-96.2"/>
<text text-anchor="start" x="28.8" y="-43.3" font-family="Arial" font-size="34.00" fill="#ffffff">Blob Store</text>
<text text-anchor="start" x="31.05" y="-23.55" font-family="Arial" font-size="19.00" fill="#ffffff">[Software System]</text>
</g>
<!-- 15 -->
<g id="15" class="node">
<title>15</title>
<polygon fill="#999999" stroke="#6b6b6b" points="888.22,-985.8 539.62,-985.8 539.62,-889.6 888.22,-889.6 888.22,-985.8"/>
<text text-anchor="start" x="568.42" y="-932.9" font-family="Arial" font-size="34.00" fill="#ffffff">Argo WF Controller</text>
<text text-anchor="start" x="649.8" y="-913.15" font-family="Arial" font-size="19.00" fill="#ffffff">[Container: Go]</text>
</g>
<!-- 15&#45;&gt;23 -->
<g id="40" class="edge">
<title>15&#45;&gt;23</title>
<path fill="none" stroke="#707070" stroke-dasharray="5,2" d="M888.36,-903.01C928.65,-890.98 970.15,-874.91 1005.92,-853.6 1064.24,-818.87 1117.69,-764.57 1156.95,-718.36"/>
<polygon fill="#707070" stroke="#707070" points="1159.39,-720.9 1163.14,-710.99 1154.03,-716.4 1159.39,-720.9"/>
<text text-anchor="start" x="1172.17" y="-830.8" font-family="Arial" font-size="24.00" fill="#707070">fetches containers</text>
<text text-anchor="start" x="1127.92" y="-803.8" font-family="Arial" font-size="24.00" fill="#707070">implementing the analytics</text>
<text text-anchor="start" x="1181.17" y="-776.8" font-family="Arial" font-size="24.00" fill="#707070">steps involved in</text>
<text text-anchor="start" x="1186.8" y="-749.8" font-family="Arial" font-size="24.00" fill="#707070">executing order</text>
</g>
<!-- 16 -->
<g id="16" class="node">
<title>16</title>
<polygon fill="#d400ff" stroke="#9400b2" points="503.35,-697.6 152.5,-697.6 152.5,-563.4 503.35,-563.4 503.35,-697.6"/>
<text text-anchor="start" x="210.55" y="-644.7" font-family="Arial" font-size="34.00" fill="#ffffff">Ananlytics Step</text>
<text text-anchor="start" x="281.8" y="-624.95" font-family="Arial" font-size="19.00" fill="#ffffff">[Container]</text>
<text text-anchor="start" x="181.3" y="-587.2" font-family="Arial" font-size="24.00" fill="#ffffff">Provider supplied container</text>
</g>
<!-- 15&#45;&gt;16 -->
<g id="42" class="edge">
<title>15&#45;&gt;16</title>
<path fill="none" stroke="#707070" stroke-dasharray="5,2" d="M539.43,-894.2C514.2,-883.47 489.7,-870.13 468.68,-853.6 420.37,-815.61 383.94,-756.16 360.26,-708.32"/>
<polygon fill="#707070" stroke="#707070" points="363.43,-706.83 355.92,-699.35 357.13,-709.88 363.43,-706.83"/>
<text text-anchor="start" x="467.92" y="-803.8" font-family="Arial" font-size="24.00" fill="#707070">run based on workflow</text>
<text text-anchor="start" x="530.55" y="-776.8" font-family="Arial" font-size="24.00" fill="#707070">description</text>
</g>
<!-- 18 -->
<g id="18" class="node">
<title>18</title>
<polygon fill="#438dd5" stroke="#2e6295" points="956.35,-709.6 575.5,-709.6 575.5,-551.4 956.35,-551.4 956.35,-709.6"/>
<text text-anchor="start" x="673.3" y="-656.7" font-family="Arial" font-size="34.00" fill="#ffffff">Exit Handler</text>
<text text-anchor="start" x="701.8" y="-636.95" font-family="Arial" font-size="19.00" fill="#ffffff">[Container: Go]</text>
<text text-anchor="start" x="604.3" y="-599.2" font-family="Arial" font-size="24.00" fill="#ffffff">Monitors and reports workflow</text>
<text text-anchor="start" x="739.67" y="-575.2" font-family="Arial" font-size="24.00" fill="#ffffff">state</text>
</g>
<!-- 15&#45;&gt;18 -->
<g id="48" class="edge">
<title>15&#45;&gt;18</title>
<path fill="none" stroke="#707070" stroke-dasharray="5,2" d="M721.99,-889.35C729.63,-844.55 741.28,-776.15 750.67,-721.06"/>
<polygon fill="#707070" stroke="#707070" points="754.09,-721.81 752.32,-711.37 747.19,-720.64 754.09,-721.81"/>
<text text-anchor="start" x="745.92" y="-790.3" font-family="Arial" font-size="24.00" fill="#707070">called on workflow exit</text>
</g>
<!-- 17 -->
<g id="17" class="node">
<title>17</title>
<polygon fill="#438dd5" stroke="#2e6295" points="512.48,-452.4 153.38,-452.4 153.38,-294.2 512.48,-294.2 512.48,-452.4"/>
<text text-anchor="start" x="248.55" y="-399.5" font-family="Arial" font-size="34.00" fill="#ffffff">Data Proxy</text>
<text text-anchor="start" x="268.8" y="-379.75" font-family="Arial" font-size="19.00" fill="#ffffff">[Container: Go]</text>
<text text-anchor="start" x="182.18" y="-342" font-family="Arial" font-size="24.00" fill="#ffffff">Captures all in and outgoing</text>
<text text-anchor="start" x="199.8" y="-318" font-family="Arial" font-size="24.00" fill="#ffffff">data from workflow tasks</text>
</g>
<!-- 16&#45;&gt;17 -->
<g id="43" class="edge">
<title>16&#45;&gt;17</title>
<path fill="none" stroke="#707070" stroke-dasharray="5,2" d="M329.23,-563.12C329.82,-532.86 330.53,-496.59 331.17,-463.96"/>
<polygon fill="#707070" stroke="#707070" points="334.66,-464.17 331.36,-454.1 327.67,-464.03 334.66,-464.17"/>
<text text-anchor="start" x="329.93" y="-492.6" font-family="Arial" font-size="24.00" fill="#707070">retrieve and store data</text>
</g>
<!-- 17&#45;&gt;13 -->
<g id="46" class="edge">
<title>17&#45;&gt;13</title>
<path fill="none" stroke="#707070" stroke-dasharray="5,2" d="M336.94,-293.95C343.48,-242.31 359.77,-176.32 399.68,-132.2 409.92,-120.88 421.89,-111.08 434.84,-102.61"/>
<polygon fill="#707070" stroke="#707070" points="436.48,-105.7 443.14,-97.46 432.8,-99.75 436.48,-105.7"/>
<text text-anchor="start" x="449.92" y="-163.4" font-family="Arial" font-size="24.00" fill="#707070">stores metadata for</text>
<text text-anchor="start" x="398.92" y="-136.4" font-family="Arial" font-size="24.00" fill="#707070">accessed and produced data</text>
</g>
<!-- 17&#45;&gt;21 -->
<g id="44" class="edge">
<title>17&#45;&gt;21</title>
<path fill="none" stroke="#707070" stroke-dasharray="5,2" d="M190.14,-293.73C152.16,-265.22 115.9,-229.22 94.93,-186.2 83.2,-162.14 84.21,-132.91 89.07,-107.63"/>
<polygon fill="#707070" stroke="#707070" points="92.42,-108.69 91.12,-98.18 85.58,-107.2 92.42,-108.69"/>
<text text-anchor="start" x="94.93" y="-163.4" font-family="Arial" font-size="24.00" fill="#707070">stores produced data</text>
<text text-anchor="start" x="162.43" y="-136.4" font-family="Arial" font-size="24.00" fill="#707070">products</text>
</g>
<!-- 18&#45;&gt;13 -->
<g id="49" class="edge">
<title>18&#45;&gt;13</title>
<path fill="none" stroke="#707070" stroke-dasharray="5,2" d="M778.38,-551C790.72,-447.91 798.48,-264.52 724.92,-132.2 719.26,-122.02 711.77,-112.73 703.34,-104.35"/>
<polygon fill="#707070" stroke="#707070" points="705.82,-101.87 696.11,-97.63 701.05,-107 705.82,-101.87"/>
<text text-anchor="start" x="785.92" y="-377.5" font-family="Arial" font-size="24.00" fill="#707070">update workflow/order</text>
<text text-anchor="start" x="878.92" y="-350.5" font-family="Arial" font-size="24.00" fill="#707070">state</text>
</g>
</g>
</svg>
