<?xml version="1.0" encoding="UTF-8" standalone="no"?>
<!DOCTYPE svg PUBLIC "-//W3C//DTD SVG 1.1//EN"
 "http://www.w3.org/Graphics/SVG/1.1/DTD/svg11.dtd">
<!-- Generated by graphviz version 10.0.1 (20240210.2158)
 -->
<!-- Pages: 1 -->
<svg width="1266pt" height="720pt"
 viewBox="0.00 0.00 1265.75 719.79" xmlns="http://www.w3.org/2000/svg" xmlns:xlink="http://www.w3.org/1999/xlink">
<g id="graph0" class="graph" transform="scale(1 1) rotate(0) translate(4 715.79)">
<polygon fill="white" stroke="none" points="-4,4 -4,-715.79 1261.75,-715.79 1261.75,4 -4,4"/>
<g id="clust1" class="cluster">
<title>cluster_group_Intelligent Visual Collaboration Analytics Platform &#45; IVCAP</title>
<polygon fill="none" stroke="#cccccc" stroke-dasharray="5,2" points="8,-8 8,-189.2 639,-189.2 639,-8 8,-8"/>
<text text-anchor="start" x="15.62" y="10.8" font-family="Arial" font-size="24.00" fill="#cccccc">Intelligent Visual Collaboration Analytics Platform &#45; IVCAP</text>
</g>
<!-- 3 -->
<g id="3" class="node">
<title>3</title>
<polygon fill="#1168bd" stroke="#0b4884" points="577.17,-164.2 320.82,-164.2 320.82,-68 577.17,-68 577.17,-164.2"/>
<text text-anchor="start" x="349.62" y="-111.3" font-family="Arial" font-size="34.00" fill="#ffffff">API Gateway</text>
<text text-anchor="start" x="372.12" y="-91.55" font-family="Arial" font-size="19.00" fill="#ffffff">[Software System]</text>
</g>
<!-- 2 -->
<g id="2" class="node">
<title>2</title>
<ellipse fill="#e5770d" stroke="#a05309" cx="469" cy="-646.6" rx="234.83" ry="65.2"/>
<text text-anchor="start" x="331.75" y="-641.7" font-family="Arial" font-size="32.00" fill="#ffffff">Workflow Providers</text>
<text text-anchor="start" x="437.12" y="-623.95" font-family="Arial" font-size="17.00" fill="#ffffff">[Person]</text>
</g>
<!-- 2&#45;&gt;3 -->
<g id="27" class="edge">
<title>2&#45;&gt;3</title>
<path fill="none" stroke="#707070" stroke-dasharray="5,2" d="M458.88,-581.05C454.69,-551.13 450.32,-515.04 448.25,-482.4 441.4,-374.26 444.03,-247.75 446.53,-175.56"/>
<polygon fill="#707070" stroke="#707070" points="450.02,-176.08 446.88,-165.96 443.02,-175.83 450.02,-176.08"/>
<text text-anchor="start" x="449" y="-419.5" font-family="Arial" font-size="24.00" fill="#707070">manages its workflows on</text>
<text text-anchor="start" x="523.25" y="-392.5" font-family="Arial" font-size="24.00" fill="#707070">the platform</text>
</g>
<!-- 20 -->
<g id="20" class="node">
<title>20</title>
<polygon fill="#1168bd" stroke="#0b4884" points="1105.05,-482.4 760.95,-482.4 760.95,-348.2 1105.05,-348.2 1105.05,-482.4"/>
<text text-anchor="start" x="843.38" y="-429.5" font-family="Arial" font-size="34.00" fill="#ffffff">Server SDK</text>
<text text-anchor="start" x="856.12" y="-409.75" font-family="Arial" font-size="19.00" fill="#ffffff">[Software System]</text>
<text text-anchor="start" x="789.75" y="-372" font-family="Arial" font-size="24.00" fill="#ffffff">SDK for building workflows</text>
</g>
<!-- 2&#45;&gt;20 -->
<g id="28" class="edge">
<title>2&#45;&gt;20</title>
<path fill="none" stroke="#707070" stroke-dasharray="5,2" d="M583.1,-589.21C644.99,-558.62 722.14,-520.5 788.22,-487.84"/>
<polygon fill="#707070" stroke="#707070" points="789.54,-491.1 796.95,-483.53 786.44,-484.82 789.54,-491.1"/>
<text text-anchor="start" x="714" y="-522.6" font-family="Arial" font-size="24.00" fill="#707070">uses</text>
</g>
<!-- 20&#45;&gt;3 -->
<g id="29" class="edge">
<title>20&#45;&gt;3</title>
<path fill="none" stroke="#707070" stroke-dasharray="5,2" d="M760.73,-362.05C709.32,-344.85 660.69,-326.49 638.25,-312.2 579.97,-275.09 526.45,-216.61 491.31,-173.34"/>
<polygon fill="#707070" stroke="#707070" points="494.25,-171.42 485.26,-165.81 488.79,-175.8 494.25,-171.42"/>
<text text-anchor="start" x="638" y="-275.9" font-family="Arial" font-size="24.00" fill="#707070">manages its workflows on</text>
<text text-anchor="start" x="712.25" y="-248.9" font-family="Arial" font-size="24.00" fill="#707070">the platform</text>
</g>
<!-- 23 -->
<g id="23" class="node">
<title>23</title>
<polygon fill="#999999" stroke="#6b6b6b" points="1127.92,-195.2 738.08,-195.2 738.08,-37 1127.92,-37 1127.92,-195.2"/>
<text text-anchor="start" x="792" y="-142.3" font-family="Arial" font-size="34.00" fill="#ffffff">Container Registry</text>
<text text-anchor="start" x="856.12" y="-122.55" font-family="Arial" font-size="19.00" fill="#ffffff">[Software System]</text>
<text text-anchor="start" x="784.12" y="-84.8" font-family="Arial" font-size="24.00" fill="#ffffff">Holds all the analytics steps</text>
<text text-anchor="start" x="766.88" y="-60.8" font-family="Arial" font-size="24.00" fill="#ffffff">provided by workflow providers</text>
</g>
<!-- 20&#45;&gt;23 -->
<g id="30" class="edge">
<title>20&#45;&gt;23</title>
<path fill="none" stroke="#707070" stroke-dasharray="5,2" d="M933,-347.97C933,-306.42 933,-252.32 933,-206.94"/>
<polygon fill="#707070" stroke="#707070" points="936.5,-207.12 933,-197.12 929.5,-207.12 936.5,-207.12"/>
<text text-anchor="start" x="933" y="-289.4" font-family="Arial" font-size="24.00" fill="#707070">TEMPORARY: stores provider</text>
<text text-anchor="start" x="988.5" y="-262.4" font-family="Arial" font-size="24.00" fill="#707070">supplied dockerised</text>
<text text-anchor="start" x="1016.25" y="-235.4" font-family="Arial" font-size="24.00" fill="#707070">analytics steps</text>
</g>
</g>
</svg>
