<?xml version="1.0" encoding="UTF-8" standalone="no"?>
<!DOCTYPE svg PUBLIC "-//W3C//DTD SVG 1.1//EN"
 "http://www.w3.org/Graphics/SVG/1.1/DTD/svg11.dtd">
<!-- Generated by graphviz version 10.0.1 (20240210.2158)
 -->
<!-- Pages: 1 -->
<svg width="914pt" height="801pt"
 viewBox="0.00 0.00 914.00 800.60" xmlns="http://www.w3.org/2000/svg" xmlns:xlink="http://www.w3.org/1999/xlink">
<g id="graph0" class="graph" transform="scale(1 1) rotate(0) translate(4 796.6)">
<polygon fill="white" stroke="none" points="-4,4 -4,-796.6 910,-796.6 910,4 -4,4"/>
<g id="clust1" class="cluster">
<title>cluster_group_Intelligent Visual Collaboration Analytics Platform &#45; IVCAP</title>
<polygon fill="none" stroke="#cccccc" stroke-dasharray="5,2" points="8,-8 8,-784.6 898,-784.6 898,-8 8,-8"/>
<text text-anchor="start" x="145.12" y="10.8" font-family="Arial" font-size="24.00" fill="#cccccc">Intelligent Visual Collaboration Analytics Platform &#45; IVCAP</text>
</g>
<!-- 11 -->
<g id="11" class="node">
<title>11</title>
<polygon fill="#1168bd" stroke="#0b4884" points="627.05,-537.4 210.95,-537.4 210.95,-379.2 627.05,-379.2 627.05,-537.4"/>
<text text-anchor="start" x="306.88" y="-484.5" font-family="Arial" font-size="34.00" fill="#ffffff">Queue Service</text>
<text text-anchor="start" x="342.12" y="-464.75" font-family="Arial" font-size="19.00" fill="#ffffff">[Software System]</text>
<text text-anchor="start" x="239.75" y="-427" font-family="Arial" font-size="24.00" fill="#ffffff">Handles queue management and</text>
<text text-anchor="start" x="320.75" y="-403" font-family="Arial" font-size="24.00" fill="#ffffff">message handling</text>
</g>
<!-- 12 -->
<g id="12" class="node">
<title>12</title>
<polygon fill="#1168bd" stroke="#0b4884" points="453.3,-226.2 32.7,-226.2 32.7,-68 453.3,-68 453.3,-226.2"/>
<text text-anchor="start" x="61.5" y="-173.3" font-family="Arial" font-size="34.00" fill="#ffffff">NATS JetStream Server</text>
<text text-anchor="start" x="166.12" y="-153.55" font-family="Arial" font-size="19.00" fill="#ffffff">[Software System]</text>
<text text-anchor="start" x="81.75" y="-115.8" font-family="Arial" font-size="24.00" fill="#ffffff">Distributed messaging system</text>
<text text-anchor="start" x="87" y="-91.8" font-family="Arial" font-size="24.00" fill="#ffffff">delivering queue functionality</text>
</g>
<!-- 11&#45;&gt;12 -->
<g id="39" class="edge">
<title>11&#45;&gt;12</title>
<path fill="none" stroke="#707070" stroke-dasharray="5,2" d="M261.22,-378.9C250.26,-368.28 240.64,-356.41 233.25,-343.2 215.62,-311.68 214.35,-272.63 218.87,-237.77"/>
<polygon fill="#707070" stroke="#707070" points="222.29,-238.51 220.3,-228.11 215.37,-237.48 222.29,-238.51"/>
<text text-anchor="start" x="233" y="-320.4" font-family="Arial" font-size="24.00" fill="#707070">send requests to manage</text>
<text text-anchor="start" x="267.5" y="-293.4" font-family="Arial" font-size="24.00" fill="#707070">queues and deliver</text>
<text text-anchor="start" x="314.75" y="-266.4" font-family="Arial" font-size="24.00" fill="#707070">messages</text>
</g>
<!-- 13 -->
<g id="13" class="node">
<title>13</title>
<polygon fill="#1168bd" stroke="#0b4884" points="872.55,-195.2 525.45,-195.2 525.45,-99 872.55,-99 872.55,-195.2"/>
<text text-anchor="start" x="554.25" y="-142.3" font-family="Arial" font-size="34.00" fill="#ffffff">DataFabric Service</text>
<text text-anchor="start" x="622.12" y="-122.55" font-family="Arial" font-size="19.00" fill="#ffffff">[Software System]</text>
</g>
<!-- 11&#45;&gt;13 -->
<g id="38" class="edge">
<title>11&#45;&gt;13</title>
<path fill="none" stroke="#707070" stroke-dasharray="5,2" d="M490.02,-378.88C539.49,-324.25 604.28,-252.7 648.52,-203.84"/>
<polygon fill="#707070" stroke="#707070" points="650.85,-206.48 654.97,-196.72 645.66,-201.78 650.85,-206.48"/>
<text text-anchor="start" x="592" y="-306.9" font-family="Arial" font-size="24.00" fill="#707070">stores metadata of queue</text>
<text text-anchor="start" x="680.88" y="-279.9" font-family="Arial" font-size="24.00" fill="#707070">lifecycles</text>
</g>
<!-- 3 -->
<g id="3" class="node">
<title>3</title>
<polygon fill="#1168bd" stroke="#0b4884" points="547.17,-759.6 290.82,-759.6 290.82,-663.4 547.17,-663.4 547.17,-759.6"/>
<text text-anchor="start" x="319.62" y="-706.7" font-family="Arial" font-size="34.00" fill="#ffffff">API Gateway</text>
<text text-anchor="start" x="342.12" y="-686.95" font-family="Arial" font-size="19.00" fill="#ffffff">[Software System]</text>
</g>
<!-- 3&#45;&gt;11 -->
<g id="32" class="edge">
<title>3&#45;&gt;11</title>
<path fill="none" stroke="#707070" stroke-dasharray="5,2" d="M419,-662.96C419,-630.85 419,-587.47 419,-549"/>
<polygon fill="#707070" stroke="#707070" points="422.5,-549.28 419,-539.28 415.5,-549.28 422.5,-549.28"/>
<text text-anchor="start" x="421.62" y="-604.6" font-family="Arial" font-size="24.00" fill="#707070">forward incoming queue</text>
<text text-anchor="start" x="419" y="-577.6" font-family="Arial" font-size="24.00" fill="#707070">resquests for processing</text>
</g>
</g>
</svg>
