<?xml version="1.0" encoding="UTF-8" standalone="no"?>
<!DOCTYPE svg PUBLIC "-//W3C//DTD SVG 1.1//EN"
 "http://www.w3.org/Graphics/SVG/1.1/DTD/svg11.dtd">
<!-- Generated by graphviz version 3.0.0 (20220226.1711)
 -->
<!-- Title: G Pages: 1 -->
<svg width="854pt" height="491pt"
 viewBox="0.00 0.00 854.00 491.00" xmlns="http://www.w3.org/2000/svg" xmlns:xlink="http://www.w3.org/1999/xlink">
<g id="graph0" class="graph" transform="scale(1 1) rotate(0) translate(4 487)">
<title>G</title>
<polygon fill="white" stroke="transparent" points="-4,4 -4,-487 850,-487 850,4 -4,4"/>
<g id="clust1" class="cluster">
<title>cluster_0</title>
<polygon fill="none" stroke="lightgrey" points="8,-73 8,-429 275,-429 275,-73 8,-73"/>
<text text-anchor="middle" x="141.5" y="-413.8" font-family="Times,serif" font-size="14.00">Select Workflow</text>
</g>
<g id="clust3" class="cluster">
<title>cluster_1</title>
<polygon fill="none" stroke="lightgrey" points="347,-73 347,-434 527,-434 527,-73 347,-73"/>
<text text-anchor="middle" x="437" y="-418.8" font-family="Times,serif" font-size="14.00">Order Workflow</text>
</g>
<g id="clust4" class="cluster">
<title>cluster_2</title>
<polygon fill="none" stroke="lightgrey" points="535,-262 535,-429 838,-429 838,-262 535,-262"/>
<text text-anchor="middle" x="686.5" y="-413.8" font-family="Times,serif" font-size="14.00">Manage Artifacts</text>
</g>
<!-- start -->
<g id="node1" class="node">
<title>start</title>
<ellipse fill="black" stroke="black" cx="412" cy="-472" rx="11" ry="11"/>
</g>
<!-- search -->
<g id="node3" class="node">
<title>search</title>
<path fill="none" stroke="black" d="M254.5,-398C254.5,-398 105.5,-398 105.5,-398 99.5,-398 93.5,-392 93.5,-386 93.5,-386 93.5,-374 93.5,-374 93.5,-368 99.5,-362 105.5,-362 105.5,-362 254.5,-362 254.5,-362 260.5,-362 266.5,-368 266.5,-374 266.5,-374 266.5,-386 266.5,-386 266.5,-392 260.5,-398 254.5,-398"/>
<text text-anchor="start" x="124" y="-381.8" font-family="Times,serif" font-size="14.00">Search for workflow</text>
<text text-anchor="start" x="101.5" y="-371" font-family="Courier,monospace" font-size="10.00">GET /1/workflows?q={query}</text>
</g>
<!-- start&#45;&gt;search -->
<g id="edge13" class="edge">
<title>start&#45;&gt;search</title>
<path fill="none" stroke="black" d="M402.03,-467.13C373.42,-456.03 289.49,-423.47 233.41,-401.72"/>
<polygon fill="black" stroke="black" points="234.57,-398.41 223.98,-398.06 232.04,-404.94 234.57,-398.41"/>
</g>
<!-- order -->
<g id="node8" class="node">
<title>order</title>
<path fill="none" stroke="black" d="M452,-403C452,-403 372,-403 372,-403 366,-403 360,-397 360,-391 360,-391 360,-369 360,-369 360,-363 366,-357 372,-357 372,-357 452,-357 452,-357 458,-357 464,-363 464,-369 464,-369 464,-391 464,-391 464,-397 458,-403 452,-403"/>
<text text-anchor="start" x="368" y="-388.8" font-family="Times,serif" font-size="14.00">Order workflow</text>
<text text-anchor="start" x="368" y="-374.8" font-family="Times,serif" font-size="14.00">with parameters</text>
<text text-anchor="start" x="369.5" y="-364" font-family="Courier,monospace" font-size="10.00">POST /1/orders</text>
</g>
<!-- start&#45;&gt;order -->
<g id="edge14" class="edge">
<title>start&#45;&gt;order</title>
<path fill="none" stroke="black" d="M412,-460.68C412,-449.24 412,-430.21 412,-413.62"/>
<polygon fill="black" stroke="black" points="415.5,-413.18 412,-403.18 408.5,-413.18 415.5,-413.18"/>
</g>
<!-- manage_a -->
<g id="node12" class="node">
<title>manage_a</title>
<polygon fill="none" stroke="black" points="615,-398 560.54,-380 615,-362 669.46,-380 615,-398"/>
<text text-anchor="middle" x="615" y="-376.3" font-family="Times,serif" font-size="14.00">Action?</text>
</g>
<!-- start&#45;&gt;manage_a -->
<g id="edge15" class="edge">
<title>start&#45;&gt;manage_a:n</title>
<path fill="none" stroke="black" d="M422.91,-469.57C461.62,-464.22 591.13,-443.89 612.12,-408.77"/>
<polygon fill="black" stroke="black" points="615.52,-409.58 615,-399 608.81,-407.6 615.52,-409.58"/>
</g>
<!-- end -->
<g id="node2" class="node">
<title>end</title>
<ellipse fill="black" stroke="black" cx="277" cy="-15" rx="11" ry="11"/>
<ellipse fill="none" stroke="black" cx="277" cy="-15" rx="15" ry="15"/>
</g>
<!-- found_it -->
<g id="node5" class="node">
<title>found_it</title>
<polygon fill="none" stroke="black" points="79,-306 16.49,-288 79,-270 141.51,-288 79,-306"/>
<text text-anchor="middle" x="79" y="-284.3" font-family="Times,serif" font-size="14.00">Found it?</text>
</g>
<!-- search&#45;&gt;found_it -->
<g id="edge1" class="edge">
<title>search&#45;&gt;found_it</title>
<path fill="none" stroke="black" d="M160.53,-361.65C143.53,-346.5 118.87,-324.52 101.12,-308.71"/>
<polygon fill="black" stroke="black" points="103.31,-305.97 93.51,-301.93 98.65,-311.2 103.31,-305.97"/>
</g>
<!-- refine -->
<g id="node4" class="node">
<title>refine</title>
<path fill="none" stroke="black" d="M255,-306C255,-306 189,-306 189,-306 183,-306 177,-300 177,-294 177,-294 177,-282 177,-282 177,-276 183,-270 189,-270 189,-270 255,-270 255,-270 261,-270 267,-276 267,-282 267,-282 267,-294 267,-294 267,-300 261,-306 255,-306"/>
<text text-anchor="middle" x="222" y="-284.3" font-family="Times,serif" font-size="14.00">Refine search</text>
</g>
<!-- refine&#45;&gt;search -->
<g id="edge6" class="edge">
<title>refine&#45;&gt;search</title>
<path fill="none" stroke="black" d="M213.93,-306.3C207.83,-319.36 199.36,-337.51 192.41,-352.41"/>
<polygon fill="black" stroke="black" points="189.16,-351.11 188.1,-361.65 195.5,-354.07 189.16,-351.11"/>
</g>
<!-- found_it&#45;&gt;end -->
<g id="edge17" class="edge">
<title>found_it&#45;&gt;end</title>
<path fill="none" stroke="black" d="M67.66,-272.96C51.05,-250.58 23.54,-205.52 38,-168 58.48,-114.86 76.86,-104.96 124,-73 164.89,-45.27 221.03,-28.88 252.69,-21.24"/>
<polygon fill="black" stroke="black" points="253.48,-24.65 262.43,-18.98 251.9,-17.83 253.48,-24.65"/>
<text text-anchor="middle" x="81.5" y="-138.8" font-family="Times,serif" font-size="14.00">Giving up</text>
</g>
<!-- found_it&#45;&gt;refine -->
<g id="edge5" class="edge">
<title>found_it&#45;&gt;refine</title>
<path fill="none" stroke="black" d="M141.72,-288C150.06,-288 158.56,-288 166.75,-288"/>
<polygon fill="black" stroke="black" points="166.94,-291.5 176.94,-288 166.94,-284.5 166.94,-291.5"/>
<text text-anchor="middle" x="159.25" y="-294.8" font-family="Times,serif" font-size="14.00">No</text>
</g>
<!-- verify -->
<g id="node6" class="node">
<title>verify</title>
<path fill="none" stroke="black" d="M178.5,-204C178.5,-204 59.5,-204 59.5,-204 53.5,-204 47.5,-198 47.5,-192 47.5,-192 47.5,-180 47.5,-180 47.5,-174 53.5,-168 59.5,-168 59.5,-168 178.5,-168 178.5,-168 184.5,-168 190.5,-174 190.5,-180 190.5,-180 190.5,-192 190.5,-192 190.5,-198 184.5,-204 178.5,-204"/>
<text text-anchor="start" x="70" y="-187.8" font-family="Times,serif" font-size="14.00">Verify description</text>
<text text-anchor="start" x="55.5" y="-177" font-family="Courier,monospace" font-size="10.00">GET /1/workflows/{id}</text>
</g>
<!-- found_it&#45;&gt;verify -->
<g id="edge2" class="edge">
<title>found_it&#45;&gt;verify</title>
<path fill="none" stroke="black" d="M85.25,-271.38C91.43,-255.92 101.02,-231.96 108.39,-213.52"/>
<polygon fill="black" stroke="black" points="111.66,-214.78 112.12,-204.19 105.16,-212.18 111.66,-214.78"/>
<text text-anchor="middle" x="115.5" y="-233.3" font-family="Times,serif" font-size="14.00">Yes</text>
</g>
<!-- satisfied -->
<g id="node7" class="node">
<title>satisfied</title>
<polygon fill="none" stroke="black" points="200,-117 132.8,-99 200,-81 267.2,-99 200,-117"/>
<text text-anchor="middle" x="200" y="-95.3" font-family="Times,serif" font-size="14.00">Satisified?</text>
</g>
<!-- verify&#45;&gt;satisfied -->
<g id="edge3" class="edge">
<title>verify&#45;&gt;satisfied</title>
<path fill="none" stroke="black" d="M135.39,-167.8C148.18,-154.37 166.02,-135.65 179.72,-121.28"/>
<polygon fill="black" stroke="black" points="182.47,-123.46 186.84,-113.81 177.41,-118.64 182.47,-123.46"/>
</g>
<!-- satisfied&#45;&gt;end -->
<g id="edge18" class="edge">
<title>satisfied&#45;&gt;end</title>
<path fill="none" stroke="black" d="M213.06,-84.09C225.95,-70.36 245.72,-49.31 259.87,-34.25"/>
<polygon fill="black" stroke="black" points="262.77,-36.27 267.06,-26.58 257.67,-31.47 262.77,-36.27"/>
</g>
<!-- satisfied&#45;&gt;refine -->
<g id="edge4" class="edge">
<title>satisfied&#45;&gt;refine</title>
<path fill="none" stroke="black" d="M201.96,-116.68C205.77,-149.01 214.18,-220.5 218.8,-259.8"/>
<polygon fill="black" stroke="black" points="215.33,-260.22 219.97,-269.74 222.28,-259.4 215.33,-260.22"/>
<text text-anchor="middle" x="220.5" y="-182.3" font-family="Times,serif" font-size="14.00">No</text>
</g>
<!-- satisfied&#45;&gt;order -->
<g id="edge16" class="edge">
<title>satisfied&#45;&gt;order</title>
<path fill="none" stroke="black" d="M209.64,-114.63C232.41,-148.91 291.77,-236.81 347,-306 358.66,-320.61 372.32,-336.16 384.1,-349.14"/>
<polygon fill="black" stroke="black" points="381.82,-351.84 391.15,-356.85 386.99,-347.11 381.82,-351.84"/>
<text text-anchor="middle" x="314.5" y="-233.3" font-family="Times,serif" font-size="14.00">Yes</text>
</g>
<!-- check -->
<g id="node9" class="node">
<title>check</title>
<path fill="none" stroke="black" d="M468.5,-306C468.5,-306 367.5,-306 367.5,-306 361.5,-306 355.5,-300 355.5,-294 355.5,-294 355.5,-282 355.5,-282 355.5,-276 361.5,-270 367.5,-270 367.5,-270 468.5,-270 468.5,-270 474.5,-270 480.5,-276 480.5,-282 480.5,-282 480.5,-294 480.5,-294 480.5,-300 474.5,-306 468.5,-306"/>
<text text-anchor="start" x="382" y="-289.8" font-family="Times,serif" font-size="14.00">Check Status</text>
<text text-anchor="start" x="363.5" y="-279" font-family="Courier,monospace" font-size="10.00">GET /1/orders/{id}</text>
</g>
<!-- order&#45;&gt;check -->
<g id="edge7" class="edge">
<title>order&#45;&gt;check</title>
<path fill="none" stroke="black" d="M413.48,-356.75C414.3,-344.55 415.31,-329.32 416.17,-316.4"/>
<polygon fill="black" stroke="black" points="419.68,-316.41 416.85,-306.2 412.7,-315.94 419.68,-316.41"/>
</g>
<!-- status -->
<g id="node10" class="node">
<title>status</title>
<polygon fill="none" stroke="black" points="417,-204 365.55,-186 417,-168 468.45,-186 417,-204"/>
<text text-anchor="middle" x="417" y="-182.3" font-family="Times,serif" font-size="14.00">Status?</text>
</g>
<!-- check&#45;&gt;status -->
<g id="edge8" class="edge">
<title>check&#45;&gt;status</title>
<path fill="none" stroke="black" d="M417.41,-269.91C417.24,-264.22 417.08,-257.84 417,-252 416.82,-239.56 416.8,-225.78 416.83,-214.12"/>
<polygon fill="black" stroke="black" points="420.33,-214.12 416.87,-204.11 413.33,-214.09 420.33,-214.12"/>
</g>
<!-- status&#45;&gt;end -->
<g id="edge19" class="edge">
<title>status&#45;&gt;end</title>
<path fill="none" stroke="black" d="M394.58,-175.83C370.89,-165.05 333.97,-145.03 312,-117 294.27,-94.39 285.19,-62.18 280.77,-40.26"/>
<polygon fill="black" stroke="black" points="284.16,-39.33 278.92,-30.12 277.27,-40.59 284.16,-39.33"/>
<text text-anchor="middle" x="329" y="-95.3" font-family="Times,serif" font-size="14.00">Failed</text>
</g>
<!-- status&#45;&gt;check -->
<g id="edge9" class="edge">
<title>status:ne&#45;&gt;check</title>
<path fill="none" stroke="black" d="M431,-201C446.35,-216.35 440.36,-241.57 432.16,-260.74"/>
<polygon fill="black" stroke="black" points="428.97,-259.32 427.91,-269.86 435.31,-262.27 428.97,-259.32"/>
<text text-anchor="middle" x="472" y="-240.8" font-family="Times,serif" font-size="14.00"> Everything</text>
<text text-anchor="middle" x="472" y="-225.8" font-family="Times,serif" font-size="14.00">else</text>
</g>
<!-- get_a -->
<g id="node11" class="node">
<title>get_a</title>
<polygon fill="none" stroke="black" points="437,-117 355.39,-99 437,-81 518.61,-99 437,-117"/>
<text text-anchor="middle" x="437" y="-95.3" font-family="Times,serif" font-size="14.00">Get artifacts?</text>
</g>
<!-- status&#45;&gt;get_a -->
<g id="edge10" class="edge">
<title>status&#45;&gt;get_a</title>
<path fill="none" stroke="black" d="M420.76,-169.01C423.59,-156.98 427.54,-140.22 430.83,-126.24"/>
<polygon fill="black" stroke="black" points="434.3,-126.74 433.19,-116.21 427.49,-125.14 434.3,-126.74"/>
<text text-anchor="middle" x="438" y="-138.8" font-family="Times,serif" font-size="14.00">OK</text>
</g>
<!-- get_a&#45;&gt;end -->
<g id="edge20" class="edge">
<title>get_a&#45;&gt;end</title>
<path fill="none" stroke="black" d="M413.73,-86.08C383.05,-70.35 329.44,-42.87 299.27,-27.41"/>
<polygon fill="black" stroke="black" points="300.49,-24.11 290,-22.66 297.3,-30.34 300.49,-24.11"/>
<text text-anchor="middle" x="374.5" y="-51.8" font-family="Times,serif" font-size="14.00">No</text>
</g>
<!-- read_a -->
<g id="node13" class="node">
<title>read_a</title>
<path fill="none" stroke="black" d="M674.5,-306C674.5,-306 555.5,-306 555.5,-306 549.5,-306 543.5,-300 543.5,-294 543.5,-294 543.5,-282 543.5,-282 543.5,-276 549.5,-270 555.5,-270 555.5,-270 674.5,-270 674.5,-270 680.5,-270 686.5,-276 686.5,-282 686.5,-282 686.5,-294 686.5,-294 686.5,-300 680.5,-306 674.5,-306"/>
<text text-anchor="start" x="565.5" y="-289.8" font-family="Times,serif" font-size="14.00">Download artifact</text>
<text text-anchor="start" x="551.5" y="-279" font-family="Courier,monospace" font-size="10.00">GET /1/artifacts/{id}</text>
</g>
<!-- get_a&#45;&gt;read_a -->
<g id="edge21" class="edge">
<title>get_a&#45;&gt;read_a</title>
<path fill="none" stroke="black" d="M450.42,-114.09C480.5,-145.7 553.68,-222.58 591.5,-262.32"/>
<polygon fill="black" stroke="black" points="589.14,-264.91 598.57,-269.74 594.21,-260.09 589.14,-264.91"/>
<text text-anchor="middle" x="562.5" y="-182.3" font-family="Times,serif" font-size="14.00">Download</text>
</g>
<!-- manage_a&#45;&gt;read_a -->
<g id="edge11" class="edge">
<title>manage_a&#45;&gt;read_a</title>
<path fill="none" stroke="black" d="M615,-361.65C615,-348.82 615,-331.11 615,-316.38"/>
<polygon fill="black" stroke="black" points="618.5,-316.3 615,-306.3 611.5,-316.3 618.5,-316.3"/>
<text text-anchor="middle" x="647" y="-327.8" font-family="Times,serif" font-size="14.00"> &#160;Download</text>
</g>
<!-- write_a -->
<g id="node14" class="node">
<title>write_a</title>
<path fill="none" stroke="black" d="M817.5,-306C817.5,-306 716.5,-306 716.5,-306 710.5,-306 704.5,-300 704.5,-294 704.5,-294 704.5,-282 704.5,-282 704.5,-276 710.5,-270 716.5,-270 716.5,-270 817.5,-270 817.5,-270 823.5,-270 829.5,-276 829.5,-282 829.5,-282 829.5,-294 829.5,-294 829.5,-300 823.5,-306 817.5,-306"/>
<text text-anchor="start" x="726" y="-289.8" font-family="Times,serif" font-size="14.00">Upload artifact</text>
<text text-anchor="start" x="712.5" y="-279" font-family="Courier,monospace" font-size="10.00">POST /1/artifacts/</text>
</g>
<!-- manage_a&#45;&gt;write_a -->
<g id="edge12" class="edge">
<title>manage_a&#45;&gt;write_a</title>
<path fill="none" stroke="black" d="M633.78,-367.99C647.44,-359.97 666.38,-348.83 683,-339 698.24,-329.98 715.01,-320.01 729.53,-311.36"/>
<polygon fill="black" stroke="black" points="731.45,-314.29 738.25,-306.16 727.87,-308.27 731.45,-314.29"/>
<text text-anchor="middle" x="726" y="-327.8" font-family="Times,serif" font-size="14.00">Upload</text>
</g>
</g>
</svg>
