<?xml version="1.0" encoding="UTF-8" standalone="no"?>
<!DOCTYPE svg PUBLIC "-//W3C//DTD SVG 1.1//EN"
 "http://www.w3.org/Graphics/SVG/1.1/DTD/svg11.dtd">
<!-- Generated by graphviz version 7.0.5 (20221223.1930)
 -->
<!-- Pages: 1 -->
<svg width="1856pt" height="1142pt"
 viewBox="0.00 0.00 1855.50 1142.00" xmlns="http://www.w3.org/2000/svg" xmlns:xlink="http://www.w3.org/1999/xlink">
<g id="graph0" class="graph" transform="scale(1 1) rotate(0) translate(4 1138)">
<polygon fill="white" stroke="none" points="-4,4 -4,-1138 1851.5,-1138 1851.5,4 -4,4"/>
<g id="clust1" class="cluster">
<title>cluster_enterprise</title>
<polygon fill="none" stroke="#444444" points="429.5,-8 429.5,-1126 1340.5,-1126 1340.5,-8 429.5,-8"/>
<text text-anchor="start" x="577" y="-36.8" font-family="Arial" font-size="24.00" fill="#444444">Intelligent Visual Collaboration Analytics Platform &#45; IVCAP</text>
<text text-anchor="start" x="836.5" y="-16.8" font-family="Arial" font-size="19.00" fill="#444444">[Enterprise]</text>
</g>
<!-- 11 -->
<g id="11" class="node">
<title>11</title>
<polygon fill="#1168bd" stroke="#0b4884" points="1150.5,-205 802.5,-205 802.5,-108 1150.5,-108 1150.5,-205"/>
<text text-anchor="start" x="831.5" y="-156.8" font-family="Arial" font-size="34.00" fill="#ffffff">DataFabric Service</text>
<text text-anchor="start" x="899.5" y="-134.8" font-family="Arial" font-size="19.00" fill="#ffffff">[Software System]</text>
</g>
<!-- 12 -->
<g id="12" class="node">
<title>12</title>
<polygon fill="#99b2c9" stroke="#6b7c8c" points="832.5,-571 454.5,-571 454.5,-412 832.5,-412 832.5,-571"/>
<text text-anchor="start" x="607.5" y="-522.8" font-family="Arial" font-size="34.00" fill="#ffffff">Argo</text>
<text text-anchor="start" x="566.5" y="-500.8" font-family="Arial" font-size="19.00" fill="#ffffff">[Software System]</text>
<text text-anchor="start" x="483.5" y="-463.8" font-family="Arial" font-size="24.00" fill="#ffffff">Workflow engine executing all</text>
<text text-anchor="start" x="608.5" y="-439.8" font-family="Arial" font-size="24.00" fill="#ffffff">orders</text>
</g>
<!-- 12&#45;&gt;11 -->
<g id="42" class="edge">
<title>12&#45;&gt;11</title>
<path fill="none" stroke="#707070" stroke-dasharray="5,2" d="M623.35,-411.6C616.65,-366.69 616.98,-311.65 645.5,-272 679.85,-224.23 735.53,-196.22 791.49,-179.84"/>
<polygon fill="#707070" stroke="#707070" points="792.17,-183.29 800.86,-177.23 790.28,-176.55 792.17,-183.29"/>
<text text-anchor="start" x="696.5" y="-330.8" font-family="Arial" font-size="24.00" fill="#707070">stores metadata for</text>
<text text-anchor="start" x="645.5" y="-304.8" font-family="Arial" font-size="24.00" fill="#707070">accessed and produced data</text>
</g>
<!-- 19 -->
<g id="19" class="node">
<title>19</title>
<polygon fill="#999999" stroke="#6b6b6b" points="1678,-205 1461,-205 1461,-108 1678,-108 1678,-205"/>
<text text-anchor="start" x="1490" y="-156.8" font-family="Arial" font-size="34.00" fill="#ffffff">Blob Store</text>
<text text-anchor="start" x="1492.5" y="-134.8" font-family="Arial" font-size="19.00" fill="#ffffff">[Software System]</text>
</g>
<!-- 12&#45;&gt;19 -->
<g id="40" class="edge">
<title>12&#45;&gt;19</title>
<path fill="none" stroke="#707070" stroke-dasharray="5,2" d="M832.89,-425.86C879.57,-409.74 929.39,-392.38 975.5,-376 1146.29,-315.34 1188.46,-298.71 1358.5,-236 1388.19,-225.05 1420.2,-213.18 1450.1,-202.06"/>
<polygon fill="#707070" stroke="#707070" points="1451,-205.45 1459.16,-198.69 1448.56,-198.89 1451,-205.45"/>
<text text-anchor="start" x="1254.5" y="-330.8" font-family="Arial" font-size="24.00" fill="#707070">stores produced data</text>
<text text-anchor="start" x="1322" y="-304.8" font-family="Arial" font-size="24.00" fill="#707070">products</text>
</g>
<!-- 21 -->
<g id="21" class="node">
<title>21</title>
<polygon fill="#999999" stroke="#6b6b6b" points="391,-236 0,-236 0,-77 391,-77 391,-236"/>
<text text-anchor="start" x="54" y="-187.8" font-family="Arial" font-size="34.00" fill="#ffffff">Container Registry</text>
<text text-anchor="start" x="118.5" y="-165.8" font-family="Arial" font-size="19.00" fill="#ffffff">[Software System]</text>
<text text-anchor="start" x="46.5" y="-128.8" font-family="Arial" font-size="24.00" fill="#ffffff">Holds all the analytics steps</text>
<text text-anchor="start" x="29" y="-104.8" font-family="Arial" font-size="24.00" fill="#ffffff">provided by workflow providers</text>
</g>
<!-- 12&#45;&gt;21 -->
<g id="36" class="edge">
<title>12&#45;&gt;21</title>
<path fill="none" stroke="#707070" stroke-dasharray="5,2" d="M454.06,-450.41C405.11,-433.42 355.1,-409.5 315.5,-376 275.35,-342.03 246.28,-291.09 226.82,-246.93"/>
<polygon fill="#707070" stroke="#707070" points="230.08,-245.65 222.92,-237.84 223.65,-248.41 230.08,-245.65"/>
<text text-anchor="start" x="360" y="-356.8" font-family="Arial" font-size="24.00" fill="#707070">fetches containers</text>
<text text-anchor="start" x="315.5" y="-330.8" font-family="Arial" font-size="24.00" fill="#707070">implementing the analytics</text>
<text text-anchor="start" x="369" y="-304.8" font-family="Arial" font-size="24.00" fill="#707070">steps involved in</text>
<text text-anchor="start" x="374.5" y="-278.8" font-family="Arial" font-size="24.00" fill="#707070">executing order</text>
</g>
<!-- 3 -->
<g id="3" class="node">
<title>3</title>
<polygon fill="#1168bd" stroke="#0b4884" points="1024,-1101 767,-1101 767,-1004 1024,-1004 1024,-1101"/>
<text text-anchor="start" x="796" y="-1052.8" font-family="Arial" font-size="34.00" fill="#ffffff">API Gateway</text>
<text text-anchor="start" x="818.5" y="-1030.8" font-family="Arial" font-size="19.00" fill="#ffffff">[Software System]</text>
</g>
<!-- 3&#45;&gt;11 -->
<g id="31" class="edge">
<title>3&#45;&gt;11</title>
<path fill="none" stroke="#707070" stroke-dasharray="5,2" d="M982.19,-1003.63C997.3,-993.07 1012.12,-981.08 1024.5,-968 1164.21,-820.38 1199.31,-767.44 1251.5,-571 1269.65,-502.7 1279.8,-476.75 1251.5,-412 1214.01,-326.21 1131.75,-256.45 1066.92,-211.8"/>
<polygon fill="#707070" stroke="#707070" points="1068.98,-208.97 1058.74,-206.25 1065.04,-214.76 1068.98,-208.97"/>
<text text-anchor="start" x="1279" y="-665.8" font-family="Arial" font-size="24.00" fill="#707070">reads and writes all</text>
<text text-anchor="start" x="1240.5" y="-639.8" font-family="Arial" font-size="24.00" fill="#707070">relevant metadata (orders,</text>
<text text-anchor="start" x="1254" y="-613.8" font-family="Arial" font-size="24.00" fill="#707070">workflows, accounts, ...)</text>
</g>
<!-- 9 -->
<g id="9" class="node">
<title>9</title>
<polygon fill="#1168bd" stroke="#0b4884" points="953,-880 572,-880 572,-721 953,-721 953,-880"/>
<text text-anchor="start" x="633" y="-831.8" font-family="Arial" font-size="34.00" fill="#ffffff">Order Dispatcher</text>
<text text-anchor="start" x="685.5" y="-809.8" font-family="Arial" font-size="19.00" fill="#ffffff">[Software System]</text>
<text text-anchor="start" x="604.5" y="-772.8" font-family="Arial" font-size="24.00" fill="#ffffff">Creates appropriate workflow</text>
<text text-anchor="start" x="601" y="-748.8" font-family="Arial" font-size="24.00" fill="#ffffff">and schedules them with Argo</text>
</g>
<!-- 3&#45;&gt;9 -->
<g id="29" class="edge">
<title>3&#45;&gt;9</title>
<path fill="none" stroke="#707070" stroke-dasharray="5,2" d="M781.72,-1003.6C768.89,-993.67 757.56,-981.89 749.5,-968 736.26,-945.18 734.08,-917.54 736.76,-891.4"/>
<polygon fill="#707070" stroke="#707070" points="740.19,-892.17 738,-881.8 733.25,-891.28 740.19,-892.17"/>
<text text-anchor="start" x="749.5" y="-948.8" font-family="Arial" font-size="24.00" fill="#707070">forward incoming orders</text>
<text text-anchor="start" x="803.5" y="-922.8" font-family="Arial" font-size="24.00" fill="#707070">for processing</text>
</g>
<!-- 3&#45;&gt;19 -->
<g id="32" class="edge">
<title>3&#45;&gt;19</title>
<path fill="none" stroke="#707070" stroke-dasharray="5,2" d="M1024.22,-1020.02C1178.42,-974.71 1430.23,-874.86 1544.5,-685 1633.82,-536.6 1604.92,-319.96 1583.65,-216.61"/>
<polygon fill="#707070" stroke="#707070" points="1587.1,-216.02 1581.61,-206.96 1580.25,-217.46 1587.1,-216.02"/>
<text text-anchor="start" x="1577.5" y="-639.8" font-family="Arial" font-size="24.00" fill="#707070">reads and writes artifacts</text>
</g>
<!-- 3&#45;&gt;21 -->
<g id="30" class="edge">
<title>3&#45;&gt;21</title>
<path fill="none" stroke="#707070" stroke-dasharray="5,2" d="M792.79,-1003.61C768.1,-992.02 741.83,-979.62 717.5,-968 636.79,-929.45 607.69,-934.15 536.5,-880 444.52,-810.04 427.52,-781.87 364.5,-685 282.08,-558.31 263.81,-521.39 222.5,-376 210.76,-334.67 204.12,-287.5 200.37,-247.59"/>
<polygon fill="#707070" stroke="#707070" points="203.87,-247.43 199.5,-237.78 196.9,-248.05 203.87,-247.43"/>
<text text-anchor="start" x="377" y="-652.8" font-family="Arial" font-size="24.00" fill="#707070">stores provider supplied</text>
<text text-anchor="start" x="364.5" y="-626.8" font-family="Arial" font-size="24.00" fill="#707070">dockerised analytics steps</text>
</g>
<!-- 9&#45;&gt;11 -->
<g id="34" class="edge">
<title>9&#45;&gt;11</title>
<path fill="none" stroke="#707070" stroke-dasharray="5,2" d="M916.86,-720.74C928.29,-710.06 938.47,-698.17 946.5,-685 955.46,-670.29 970.61,-393.2 971.5,-376 974.3,-322.08 975.53,-260.6 976.07,-216.62"/>
<polygon fill="#707070" stroke="#707070" points="979.57,-216.82 976.18,-206.78 972.57,-216.74 979.57,-216.82"/>
<text text-anchor="start" x="968.5" y="-498.3" font-family="Arial" font-size="24.00" fill="#707070">stores metadata of order</text>
<text text-anchor="start" x="1007.5" y="-472.3" font-family="Arial" font-size="24.00" fill="#707070">related workflows</text>
</g>
<!-- 9&#45;&gt;12 -->
<g id="33" class="edge">
<title>9&#45;&gt;12</title>
<path fill="none" stroke="#707070" stroke-dasharray="5,2" d="M709.18,-720.5C702.64,-708.89 696.51,-696.85 691.5,-685 677.77,-652.5 667.34,-615.2 659.78,-582.13"/>
<polygon fill="#707070" stroke="#707070" points="663.24,-581.57 657.65,-572.57 656.4,-583.09 663.24,-581.57"/>
<text text-anchor="start" x="691.5" y="-652.8" font-family="Arial" font-size="24.00" fill="#707070">dispatch order specific</text>
<text text-anchor="start" x="759" y="-626.8" font-family="Arial" font-size="24.00" fill="#707070">workflows</text>
</g>
</g>
</svg>
